<?xml version="1.0"?>
<svg xmlns="http://www.w3.org/2000/svg" width="512" height="512" viewBox="0 0 128 128"><g><path d="M41.191,38.336,43.941,51.5v8.564a1.75,1.75,0,0,0,1.75,1.75H82.31a1.75,1.75,0,0,0,1.75-1.75V51.5l2.749-13.168a4.954,4.954,0,1,0-6.855-1.978c-2.488,3.181-4.908,4.826-6.743,4.522-2.021-.338-3.972-3.148-5.542-7.947a4.938,4.938,0,1,0-7.339,0c-1.569,4.8-3.52,7.609-5.541,7.948-1.83.3-4.254-1.341-6.743-4.523a4.878,4.878,0,0,0,.573-2.26,4.938,4.938,0,1,0-7.428,4.238ZM80.56,58.318H47.441V53.074H80.56ZM84.318,32.66A1.438,1.438,0,1,1,82.881,34.1,1.44,1.44,0,0,1,84.318,32.66ZM64,28.224a1.438,1.438,0,1,1-1.438,1.437A1.438,1.438,0,0,1,64,28.224ZM54.322,44.419a6.192,6.192,0,0,0,1.045-.087c3.4-.57,6.065-3.783,8.112-9.786A4.689,4.689,0,0,0,64,34.6a4.738,4.738,0,0,0,.521-.053c2.047,6,4.707,9.215,8.112,9.786a6.289,6.289,0,0,0,1.045.087c3.462,0,6.6-2.825,8.9-5.717a5.1,5.1,0,0,0,.547.17l-2.235,10.7H47.113l-2.235-10.7a4.885,4.885,0,0,0,.547-.171C47.726,41.594,50.86,44.419,54.322,44.419ZM43.682,32.66A1.438,1.438,0,1,1,42.244,34.1,1.439,1.439,0,0,1,43.682,32.66Z"/><path d="M123.441,48.849a1.77,1.77,0,0,0-.056-.411c-.009-.036-.023-.068-.034-.1a1.717,1.717,0,0,0-.123-.29c-.019-.036-.037-.071-.059-.105a1.762,1.762,0,0,0-.234-.3c-.009-.009-.016-.019-.025-.028a1.728,1.728,0,0,0-.283-.223L106.016,36.905V6.307a1.75,1.75,0,0,0-1.75-1.75H23.734a1.75,1.75,0,0,0-1.75,1.75v30.6L5.372,47.39a1.792,1.792,0,0,0-.284.223c-.007.008-.013.017-.02.024a1.693,1.693,0,0,0-.239.3c-.021.033-.038.067-.057.1a1.8,1.8,0,0,0-.125.294c-.011.034-.024.066-.032.1a1.733,1.733,0,0,0-.056.412l0,.02v72.824a1.75,1.75,0,0,0,1.75,1.75H121.693a1.749,1.749,0,0,0,1.75-1.75V48.869Zm-5.025.02-12.4,7.826V41.042ZM18.739,58.785,63.066,86.761a1.746,1.746,0,0,0,1.868,0l44.327-27.976V98.659a12.505,12.505,0,0,0-10.6,10.6H29.34a12.5,12.5,0,0,0-10.6-10.6ZM102.516,8.057V58.9L64,83.212,25.484,58.9V8.057ZM21.984,56.7l-12.4-7.826,12.4-7.826Zm97.959,63.248H8.056v-67.9l7.183,4.533v43.711a1.75,1.75,0,0,0,1.75,1.75,8.985,8.985,0,0,1,8.974,8.974,1.75,1.75,0,0,0,1.75,1.75h72.574a1.749,1.749,0,0,0,1.75-1.75,8.984,8.984,0,0,1,8.974-8.974,1.75,1.75,0,0,0,1.75-1.75V56.576l7.182-4.533Z"/></g></svg>
