<?xml version="1.0" encoding="iso-8859-1"?>
<!-- Generator: Adobe Illustrator 19.0.0, SVG Export Plug-In . SVG Version: 6.00 Build 0)  -->
<svg version="1.1" id="Capa_1" xmlns="http://www.w3.org/2000/svg" xmlns:xlink="http://www.w3.org/1999/xlink" x="0px" y="0px"
	 viewBox="0 0 512 512" style="enable-background:new 0 0 512 512;" xml:space="preserve">
<path style="fill:#ECF0F1;" d="M483.31,512H28.69C12.844,512,0,499.156,0,483.31V105.931h512V483.31
	C512,499.156,499.156,512,483.31,512z"/>
<path style="fill:#687492;" d="M512,105.931H0V28.69C0,12.844,12.844,0,28.69,0H483.31C499.156,0,512,12.844,512,28.69V105.931z"/>
<rect x="35.31" y="35.31" style="fill:#E64C3C;" width="35.31" height="35.31"/>
<rect x="105.931" y="35.31" style="fill:#F0C419;" width="35.31" height="35.31"/>
<rect x="176.552" y="35.31" style="fill:#24AE5F;" width="35.31" height="35.31"/>
<g>
	<rect y="291.31" style="fill:#BDC3C7;" width="512" height="17.655"/>
	<path style="fill:#BDC3C7;" d="M185.379,379.586H44.138c-4.873,0-8.828-3.946-8.828-8.828c0-4.882,3.955-8.828,8.828-8.828h141.241
		c4.873,0,8.828,3.946,8.828,8.828C194.207,375.64,190.252,379.586,185.379,379.586z"/>
	<path style="fill:#BDC3C7;" d="M229.517,414.897H44.138c-4.873,0-8.828-3.946-8.828-8.828c0-4.882,3.955-8.828,8.828-8.828h185.379
		c4.873,0,8.828,3.946,8.828,8.828C238.345,410.951,234.39,414.897,229.517,414.897z"/>
	<path style="fill:#BDC3C7;" d="M273.655,450.207H44.138c-4.873,0-8.828-3.946-8.828-8.828c0-4.882,3.955-8.828,8.828-8.828h229.517
		c4.873,0,8.828,3.946,8.828,8.828C282.483,446.261,278.528,450.207,273.655,450.207z"/>
	<path style="fill:#BDC3C7;" d="M414.897,185.379H308.966c-4.873,0-8.828-3.946-8.828-8.828s3.955-8.828,8.828-8.828h105.931
		c4.873,0,8.828,3.946,8.828,8.828S419.769,185.379,414.897,185.379z"/>
	<path style="fill:#BDC3C7;" d="M441.379,220.69H308.966c-4.873,0-8.828-3.946-8.828-8.828c0-4.882,3.955-8.828,8.828-8.828h132.414
		c4.873,0,8.828,3.946,8.828,8.828C450.207,216.744,446.252,220.69,441.379,220.69z"/>
	<path style="fill:#BDC3C7;" d="M467.862,256H308.966c-4.873,0-8.828-3.946-8.828-8.828s3.955-8.828,8.828-8.828h158.897
		c4.873,0,8.828,3.946,8.828,8.828S472.735,256,467.862,256z"/>
</g>
<path style="fill:#F0C419;" d="M397.241,485.517c-43.811,0-79.448-35.637-79.448-79.448s35.637-79.448,79.448-79.448
	s79.448,35.637,79.448,79.448S441.053,485.517,397.241,485.517z M397.241,344.276c-34.074,0-61.793,27.727-61.793,61.793
	s27.719,61.793,61.793,61.793s61.793-27.727,61.793-61.793S431.316,344.276,397.241,344.276z"/>
<rect x="35.31" y="167.724" style="fill:#CC66A1;" width="52.966" height="97.103"/>
<rect x="123.586" y="194.207" style="fill:#26B99A;" width="52.966" height="70.621"/>
<rect x="211.862" y="141.241" style="fill:#E64C3C;" width="52.966" height="123.586"/>
<g>
</g>
<g>
</g>
<g>
</g>
<g>
</g>
<g>
</g>
<g>
</g>
<g>
</g>
<g>
</g>
<g>
</g>
<g>
</g>
<g>
</g>
<g>
</g>
<g>
</g>
<g>
</g>
<g>
</g>
</svg>
